<?xml version="1.0" encoding="UTF-8"?>
<svg xmlns="http://www.w3.org/2000/svg" version="1.1" viewBox="0 0 595.28 841.89">
  <defs>
    <style>
      .cls-1 {
        fill: #f8ead7;
      }

      .cls-1, .cls-2 {
        stroke: #c98a2c;
        stroke-miterlimit: 10;
        stroke-width: 3px;
      }

      .cls-2 {
        fill: none;
      }

      .cls-3 {
        opacity: .79;
      }

      .cls-4 {
        opacity: .66;
      }

      .cls-5 {
        opacity: .58;
      }

      .cls-6 {
        opacity: .51;
      }
    </style>
  </defs>
  <!-- Generator: Adobe Illustrator 28.6.0, SVG Export Plug-In . SVG Version: 1.2.0 Build 709)  -->
  <g>
    <g id="Calque_1">
      <g>
        <g class="cls-5">
          <path class="cls-1" d="M307.79,198.21c1.41-4.09,15.69-47.63-10.27-82.58-24.2-32.58-73.1-43.89-116.17-23.44,11.07-36.53-7.85-75.74-42.8-89.67-35.74-14.25-77.36,2.27-93.75,37.7,11.91-20.11,8.51-44.27-6.11-57.07C23.7-29.95,3.3-25.54.98-25v223.2"/>
          <path class="cls-2" d="M182.15,89.91c-17.42,25.69-51.37,29.47-69.97,13.59-15.15-12.93-20.64-38.15-8.83-56.73,12.21-19.19,35.68-20,37.7-20.04"/>
          <path class="cls-2" d="M158.24,109.43c21-8.56,31.56-38.89,23.22-52.31-6.51-10.47-18.18-23.8-45.52-14.16"/>
          <path class="cls-2" d="M131.91,27.93c-32.63,1.47-58.43,28.8-58.12,60.97.3,31.48,25.5,57.97,57.41,59.78,14.57-31.35,49.92-46.64,80.62-36.68,33.85,10.98,53.7,49.96,41.21,86.2"/>
          <path class="cls-2" d="M.98,113.53c22.05-2.76,43.38,7.08,54.26,25,12.86,21.17,6.72,38.05,5.62,41.06,15.31-24.8,42.49-28.29,63.28-18.5,20.86,9.82,25.21,34.65,25.61,37.12"/>
          <path class="cls-2" d="M.98,134.54c20.74-1.34,38.4,11.87,41.89,28.99,3.93,19.24-11.95,34.02-12.68,34.68"/>
          <path class="cls-2" d="M.98,154.58c6.87-2.23,14.23-.5,18.8,4.42,4.91,5.29,4.51,12.01,4.42,13.25"/>
          <path class="cls-2" d="M44.71,38.63c9.31,17.56,4.78,36.93-9.12,43.48-10.22,4.82-24.91,1.2-34.61-7.87"/>
          <path class="cls-2" d="M.98,47.92c0,12.29,10.68,20.54,19.47,19.02,7.94-1.37,14.85-10.78,12.91-21.51"/>
          <path class="cls-2" d="M141.04,159.33c11.06-30.72,46.15-43.51,71.11-30.57,22.77,11.8,33.35,43.07,19.93,69.44"/>
          <path class="cls-2" d="M162.01,132.63c20.08-8.6,42.42-.92,51.39,15.55,6.89,12.66,5.16,29.17-4.32,41.84"/>
          <path class="cls-2" d="M179.58,197.63c-11.77-5.14-18.74-16.75-17.42-27.72,1.69-14.02,16.76-25.55,33.76-22.58"/>
          <path class="cls-2" d="M156.37,47.99c-23.81,2.62-30.23,19.19-25.05,33.48,3.66,10.09,15.76,17.21,25.81,14.39,14.71-4.13,24.11-25.11,12.78-32.8-2.45-1.66-14.65-10.29-24.05,3.88"/>
          <path class="cls-2" d="M229.01,103.19c25.63-1.89,44.93,11.04,57.21,32.79,16.81,29.78,1.74,60.02.59,62.23"/>
          <path class="cls-2" d="M229.01,103c24.57,4.45,43.41,21.27,47.51,42.06,3.03,15.37-2.91,28.22-5.67,33.35"/>
          <path class="cls-2" d="M105.03,35.51c-31.07,9.17-51,37.1-48.88,65.18,2.36,31.31,31.01,47.78,33.34,49.07"/>
          <path class="cls-2" d="M33.57,46.88c-5.8,8.13-17.21,8.99-23.53,3.14-6.34-5.88-6.31-17.39,1.44-23.76"/>
        </g>
        <g class="cls-6">
          <path class="cls-1" d="M286.93,196.52c-1.41,4.09-15.69,47.63,10.27,82.58,24.2,32.58,73.1,43.89,116.17,23.44-11.07,36.53,7.85,75.74,42.8,89.67,35.74,14.25,77.36-2.27,93.75-37.7-11.91,20.11-8.51,44.27,6.11,57.07,14.99,13.1,35.39,8.69,37.7,8.15v-223.2"/>
          <path class="cls-2" d="M412.56,304.82c17.42-25.69,51.37-29.47,69.97-13.59,15.15,12.93,20.64,38.15,8.83,56.73-12.21,19.19-35.68,20-37.7,20.04"/>
          <path class="cls-2" d="M436.48,285.3c-21,8.56-31.56,38.89-23.22,52.31,6.51,10.47,18.18,23.8,45.52,14.16"/>
          <path class="cls-2" d="M462.81,366.8c32.63-1.47,58.43-28.8,58.12-60.97-.3-31.48-25.5-57.97-57.41-59.78-14.57,31.35-49.92,46.64-80.62,36.68-33.85-10.98-53.7-49.96-41.21-86.2"/>
          <path class="cls-2" d="M593.73,281.2c-22.05,2.76-43.38-7.08-54.26-25-12.86-21.17-6.72-38.05-5.62-41.06-15.31,24.8-42.49,28.29-63.28,18.5-20.86-9.82-25.21-34.65-25.61-37.12"/>
          <path class="cls-2" d="M593.73,260.19c-20.74,1.34-38.4-11.87-41.89-28.99-3.93-19.24,11.95-34.02,12.68-34.68"/>
          <path class="cls-2" d="M593.73,240.15c-6.87,2.23-14.23.5-18.8-4.42-4.91-5.29-4.51-12.01-4.42-13.25"/>
          <path class="cls-2" d="M550.01,356.1c-9.31-17.56-4.78-36.93,9.12-43.48,10.22-4.82,24.91-1.2,34.61,7.87"/>
          <path class="cls-2" d="M593.73,346.81c0-12.29-10.68-20.54-19.47-19.02-7.94,1.37-14.85,10.78-12.91,21.51"/>
          <path class="cls-2" d="M453.67,235.4c-11.06,30.72-46.15,43.51-71.11,30.57-22.77-11.8-33.35-43.07-19.93-69.44"/>
          <path class="cls-2" d="M432.71,262.1c-20.08,8.6-42.42.92-51.39-15.55-6.89-12.66-5.16-29.17,4.32-41.84"/>
          <path class="cls-2" d="M415.13,197.1c11.77,5.14,18.74,16.75,17.42,27.72-1.69,14.02-16.76,25.55-33.76,22.58"/>
          <path class="cls-2" d="M438.35,346.74c23.81-2.62,30.23-19.19,25.05-33.48-3.66-10.09-15.76-17.21-25.81-14.39-14.71,4.13-24.11,25.11-12.78,32.8,2.45,1.66,14.65,10.29,24.05-3.88"/>
          <path class="cls-2" d="M365.71,291.54c-25.63,1.89-44.93-11.04-57.21-32.79-16.81-29.78-1.74-60.02-.59-62.23"/>
          <path class="cls-2" d="M365.71,291.73c-24.57-4.45-43.41-21.27-47.51-42.06-3.03-15.37,2.91-28.22,5.67-33.35"/>
          <path class="cls-2" d="M489.68,359.22c31.07-9.17,51-37.1,48.88-65.18-2.36-31.31-31.01-47.78-33.34-49.07"/>
          <path class="cls-2" d="M561.15,347.85c5.8-8.13,17.21-8.99,23.53-3.14,6.34,5.88,6.31,17.39-1.44,23.76"/>
        </g>
        <g>
          <path class="cls-1" d="M307.55,196.45c1.41,4.09,15.69,47.63-10.27,82.58-24.2,32.58-73.1,43.89-116.17,23.44,11.07,36.53-7.85,75.74-42.8,89.67-35.74,14.25-77.36-2.27-93.75-37.7,11.91,20.11,8.51,44.27-6.11,57.07-14.99,13.1-35.39,8.69-37.7,8.15,0-74.4,0-148.8,0-223.2"/>
          <path class="cls-2" d="M181.92,304.74c-17.42-25.69-51.37-29.47-69.97-13.59-15.15,12.93-20.64,38.15-8.83,56.73,12.21,19.19,35.68,20,37.7,20.04"/>
          <path class="cls-2" d="M158,285.22c21,8.56,31.56,38.89,23.22,52.31-6.51,10.47-18.18,23.8-45.52,14.16"/>
          <path class="cls-2" d="M131.67,366.72c-32.63-1.47-58.43-28.8-58.12-60.97.3-31.48,25.5-57.97,57.41-59.78,14.57,31.35,49.92,46.64,80.62,36.68,33.85-10.98,53.7-49.96,41.21-86.2"/>
          <path class="cls-2" d="M.75,281.13c22.05,2.76,43.38-7.08,54.26-25,12.86-21.17,6.72-38.05,5.62-41.06,15.31,24.8,42.49,28.29,63.28,18.5,20.86-9.82,25.21-34.65,25.61-37.12"/>
          <path class="cls-2" d="M.75,260.12c20.74,1.34,38.4-11.87,41.89-28.99,3.93-19.24-11.95-34.02-12.68-34.68"/>
          <path class="cls-2" d="M.75,240.08c6.87,2.23,14.23.5,18.8-4.42,4.91-5.29,4.51-12.01,4.42-13.25"/>
          <path class="cls-2" d="M44.47,356.02c9.31-17.56,4.78-36.93-9.12-43.48-10.22-4.82-24.91-1.2-34.61,7.87"/>
          <path class="cls-2" d="M.75,346.73c0-12.29,10.68-20.54,19.47-19.02,7.94,1.37,14.85,10.78,12.91,21.51"/>
          <path class="cls-2" d="M140.81,235.32c11.06,30.72,46.15,43.51,71.11,30.57,22.77-11.8,33.35-43.07,19.93-69.44"/>
          <path class="cls-2" d="M161.77,262.03c20.08,8.6,42.42.92,51.39-15.55,6.89-12.66,5.16-29.17-4.32-41.84"/>
          <path class="cls-2" d="M179.35,197.03c-11.77,5.14-18.74,16.75-17.42,27.72,1.69,14.02,16.76,25.55,33.76,22.58"/>
          <path class="cls-2" d="M156.13,346.66c-23.81-2.62-30.23-19.19-25.05-33.48,3.66-10.09,15.76-17.21,25.81-14.39,14.71,4.13,24.11,25.11,12.78,32.8-2.45,1.66-14.65,10.29-24.05-3.88"/>
          <path class="cls-2" d="M228.77,291.47c25.63,1.89,44.93-11.04,57.21-32.79,16.81-29.78,1.74-60.02.59-62.23"/>
          <path class="cls-2" d="M228.77,291.65c24.57-4.45,43.41-21.27,47.51-42.06,3.03-15.37-2.91-28.22-5.67-33.35"/>
          <path class="cls-2" d="M104.8,359.14c-31.07-9.17-51-37.1-48.88-65.18,2.36-31.31,31.01-47.78,33.34-49.07"/>
          <path class="cls-2" d="M33.33,347.77c-5.8-8.13-17.21-8.99-23.53-3.14-6.34,5.88-6.31,17.39,1.44,23.76"/>
        </g>
        <g>
          <path class="cls-1" d="M287.13,197.91c-1.41-4.09-15.69-47.63,10.27-82.58,24.2-32.58,73.1-43.89,116.17-23.44-11.07-36.53,7.85-75.74,42.8-89.67,35.74-14.25,77.36,2.27,93.75,37.7-11.91-20.11-8.51-44.27,6.11-57.07,14.99-13.1,35.39-8.69,37.7-8.15,0,74.4,0,148.8,0,223.2"/>
          <path class="cls-2" d="M412.77,89.62c17.42,25.69,51.37,29.47,69.97,13.59,15.15-12.93,20.64-38.15,8.83-56.73-12.21-19.19-35.68-20-37.7-20.04"/>
          <path class="cls-2" d="M436.68,109.14c-21-8.56-31.56-38.89-23.22-52.31,6.51-10.47,18.18-23.8,45.52-14.16"/>
          <path class="cls-2" d="M463.01,27.64c32.63,1.47,58.43,28.8,58.12,60.97-.3,31.48-25.5,57.97-57.41,59.78-14.57-31.35-49.92-46.64-80.62-36.68-33.85,10.98-53.7,49.96-41.21,86.2"/>
          <path class="cls-2" d="M593.94,113.23c-22.05-2.76-43.38,7.08-54.26,25-12.86,21.17-6.72,38.05-5.62,41.06-15.31-24.8-42.49-28.29-63.28-18.5-20.86,9.82-25.21,34.65-25.61,37.12"/>
          <path class="cls-2" d="M593.94,134.24c-20.74-1.34-38.4,11.87-41.89,28.99-3.93,19.24,11.95,34.02,12.68,34.68"/>
          <path class="cls-2" d="M593.94,154.28c-6.87-2.23-14.23-.5-18.8,4.42-4.91,5.29-4.51,12.01-4.42,13.25"/>
          <path class="cls-2" d="M550.21,38.34c-9.31,17.56-4.78,36.93,9.12,43.48,10.22,4.82,24.91,1.2,34.61-7.87"/>
          <path class="cls-2" d="M593.94,47.62c0,12.29-10.68,20.54-19.47,19.02-7.94-1.37-14.85-10.78-12.91-21.51"/>
          <path class="cls-2" d="M453.88,159.04c-11.06-30.72-46.15-43.51-71.11-30.57-22.77,11.8-33.35,43.07-19.93,69.44"/>
          <path class="cls-2" d="M432.91,132.33c-20.08-8.6-42.42-.92-51.39,15.55-6.89,12.66-5.16,29.17,4.32,41.84"/>
          <path class="cls-2" d="M415.34,197.33c11.77-5.14,18.74-16.75,17.42-27.72-1.69-14.02-16.76-25.55-33.76-22.58"/>
          <path class="cls-2" d="M438.55,47.7c23.81,2.62,30.23,19.19,25.05,33.48-3.66,10.09-15.76,17.21-25.81,14.39-14.71-4.13-24.11-25.11-12.78-32.8,2.45-1.66,14.65-10.29,24.05,3.88"/>
          <path class="cls-2" d="M365.91,102.89c-25.63-1.89-44.93,11.04-57.21,32.79-16.81,29.78-1.74,60.02-.59,62.23"/>
          <path class="cls-2" d="M365.91,102.71c-24.57,4.45-43.41,21.27-47.51,42.06-3.03,15.37,2.91,28.22,5.67,33.35"/>
          <path class="cls-2" d="M489.89,35.21c31.07,9.17,51,37.1,48.88,65.18-2.36,31.31-31.01,47.78-33.34,49.07"/>
          <path class="cls-2" d="M561.35,46.59c5.8,8.13,17.21,8.99,23.53,3.14,6.34-5.88,6.31-17.39-1.44-23.76"/>
        </g>
      </g>
      <g>
        <g class="cls-4">
          <path class="cls-1" d="M309.46,646.08c1.41-4.09,15.69-47.63-10.27-82.58-24.2-32.58-73.1-43.89-116.17-23.44,11.07-36.53-7.85-75.74-42.8-89.67-35.74-14.25-77.36,2.27-93.75,37.7,11.91-20.11,8.51-44.27-6.11-57.07-14.99-13.1-35.39-8.69-37.7-8.15v223.2"/>
          <path class="cls-2" d="M183.82,537.78c-17.42,25.69-51.37,29.47-69.97,13.59-15.15-12.93-20.64-38.15-8.83-56.73,12.21-19.19,35.68-20,37.7-20.04"/>
          <path class="cls-2" d="M159.91,557.3c21-8.56,31.56-38.89,23.22-52.31-6.51-10.47-18.18-23.8-45.52-14.16"/>
          <path class="cls-2" d="M133.57,475.8c-32.63,1.47-58.43,28.8-58.12,60.97.3,31.48,25.5,57.97,57.41,59.78,14.57-31.35,49.92-46.64,80.62-36.68,33.85,10.98,53.7,49.96,41.21,86.2"/>
          <path class="cls-2" d="M2.65,561.4c22.05-2.76,43.38,7.08,54.26,25,12.86,21.17,6.72,38.05,5.62,41.06,15.31-24.8,42.49-28.29,63.28-18.5,20.86,9.82,25.21,34.65,25.61,37.12"/>
          <path class="cls-2" d="M2.65,582.41c20.74-1.34,38.4,11.87,41.89,28.99,3.93,19.24-11.95,34.02-12.68,34.68"/>
          <path class="cls-2" d="M2.65,602.45c6.87-2.23,14.23-.5,18.8,4.42,4.91,5.29,4.51,12.01,4.42,13.25"/>
          <path class="cls-2" d="M46.38,486.51c9.31,17.56,4.78,36.93-9.12,43.48-10.22,4.82-24.91,1.2-34.61-7.87"/>
          <path class="cls-2" d="M2.65,495.79c0,12.29,10.68,20.54,19.47,19.02,7.94-1.37,14.85-10.78,12.91-21.51"/>
          <path class="cls-2" d="M142.71,607.2c11.06-30.72,46.15-43.51,71.11-30.57,22.77,11.8,33.35,43.07,19.93,69.44"/>
          <path class="cls-2" d="M163.67,580.5c20.08-8.6,42.42-.92,51.39,15.55,6.89,12.66,5.16,29.17-4.32,41.84"/>
          <path class="cls-2" d="M181.25,645.5c-11.77-5.14-18.74-16.75-17.42-27.72,1.69-14.02,16.76-25.55,33.76-22.58"/>
          <path class="cls-2" d="M158.04,495.86c-23.81,2.62-30.23,19.19-25.05,33.48,3.66,10.09,15.76,17.21,25.81,14.39,14.71-4.13,24.11-25.11,12.78-32.8-2.45-1.66-14.65-10.29-24.05,3.88"/>
          <path class="cls-2" d="M230.68,551.06c25.63-1.89,44.93,11.04,57.21,32.79,16.81,29.78,1.74,60.02.59,62.23"/>
          <path class="cls-2" d="M230.68,550.88c24.57,4.45,43.41,21.27,47.51,42.06,3.03,15.37-2.91,28.22-5.67,33.35"/>
          <path class="cls-2" d="M106.7,483.38c-31.07,9.17-51,37.1-48.88,65.18,2.36,31.31,31.01,47.78,33.34,49.07"/>
          <path class="cls-2" d="M35.24,494.75c-5.8,8.13-17.21,8.99-23.53,3.14-6.34-5.88-6.31-17.39,1.44-23.76"/>
        </g>
        <g class="cls-3">
          <path class="cls-1" d="M288.59,644.4c-1.41,4.09-15.69,47.63,10.27,82.58,24.2,32.58,73.1,43.89,116.17,23.44-11.07,36.53,7.85,75.74,42.8,89.67,35.74,14.25,77.36-2.27,93.75-37.7-11.91,20.11-8.51,44.27,6.11,57.07,14.99,13.1,35.39,8.69,37.7,8.15v-223.2"/>
          <path class="cls-2" d="M414.23,752.69c17.42-25.69,51.37-29.47,69.97-13.59,15.15,12.93,20.64,38.15,8.83,56.73-12.21,19.19-35.68,20-37.7,20.04"/>
          <path class="cls-2" d="M438.15,733.17c-21,8.56-31.56,38.89-23.22,52.31,6.51,10.47,18.18,23.8,45.52,14.16"/>
          <path class="cls-2" d="M464.48,814.67c32.63-1.47,58.43-28.8,58.12-60.97-.3-31.48-25.5-57.97-57.41-59.78-14.57,31.35-49.92,46.64-80.62,36.68-33.85-10.98-53.7-49.96-41.21-86.2"/>
          <path class="cls-2" d="M595.4,729.07c-22.05,2.76-43.38-7.08-54.26-25-12.86-21.17-6.72-38.05-5.62-41.06-15.31,24.8-42.49,28.29-63.28,18.5-20.86-9.82-25.21-34.65-25.61-37.12"/>
          <path class="cls-2" d="M595.4,708.07c-20.74,1.34-38.4-11.87-41.89-28.99-3.93-19.24,11.95-34.02,12.68-34.68"/>
          <path class="cls-2" d="M595.4,688.02c-6.87,2.23-14.23.5-18.8-4.42-4.91-5.29-4.51-12.01-4.42-13.25"/>
          <path class="cls-2" d="M551.68,803.97c-9.31-17.56-4.78-36.93,9.12-43.48,10.22-4.82,24.91-1.2,34.61,7.87"/>
          <path class="cls-2" d="M595.4,794.68c0-12.29-10.68-20.54-19.47-19.02-7.94,1.37-14.85,10.78-12.91,21.51"/>
          <path class="cls-2" d="M455.34,683.27c-11.06,30.72-46.15,43.51-71.11,30.57-22.77-11.8-33.35-43.07-19.93-69.44"/>
          <path class="cls-2" d="M434.38,709.97c-20.08,8.6-42.42.92-51.39-15.55-6.89-12.66-5.16-29.17,4.32-41.84"/>
          <path class="cls-2" d="M416.8,644.97c11.77,5.14,18.74,16.75,17.42,27.72-1.69,14.02-16.76,25.55-33.76,22.58"/>
          <path class="cls-2" d="M440.02,794.61c23.81-2.62,30.23-19.19,25.05-33.48-3.66-10.09-15.76-17.21-25.81-14.39-14.71,4.13-24.11,25.11-12.78,32.8,2.45,1.66,14.65,10.29,24.05-3.88"/>
          <path class="cls-2" d="M367.38,739.41c-25.63,1.89-44.93-11.04-57.21-32.79-16.81-29.78-1.74-60.02-.59-62.23"/>
          <path class="cls-2" d="M367.38,739.6c-24.57-4.45-43.41-21.27-47.51-42.06-3.03-15.37,2.91-28.22,5.67-33.35"/>
          <path class="cls-2" d="M491.35,807.09c31.07-9.17,51-37.1,48.88-65.18-2.36-31.31-31.01-47.78-33.34-49.07"/>
          <path class="cls-2" d="M562.82,795.72c5.8-8.13,17.21-8.99,23.53-3.14,6.34,5.88,6.31,17.39-1.44,23.76"/>
        </g>
        <g>
          <path class="cls-1" d="M309.22,644.32c1.41,4.09,15.69,47.63-10.27,82.58-24.2,32.58-73.1,43.89-116.17,23.44,11.07,36.53-7.85,75.74-42.8,89.67-35.74,14.25-77.36-2.27-93.75-37.7,11.91,20.11,8.51,44.27-6.11,57.07-14.99,13.1-35.39,8.69-37.7,8.15,0-74.4,0-148.8,0-223.2"/>
          <path class="cls-2" d="M183.59,752.61c-17.42-25.69-51.37-29.47-69.97-13.59-15.15,12.93-20.64,38.15-8.83,56.73,12.21,19.19,35.68,20,37.7,20.04"/>
          <path class="cls-2" d="M159.67,733.09c21,8.56,31.56,38.89,23.22,52.31-6.51,10.47-18.18,23.8-45.52,14.16"/>
          <path class="cls-2" d="M133.34,814.59c-32.63-1.47-58.43-28.8-58.12-60.97.3-31.48,25.5-57.97,57.41-59.78,14.57,31.35,49.92,46.64,80.62,36.68,33.85-10.98,53.7-49.96,41.21-86.2"/>
          <path class="cls-2" d="M2.41,729c22.05,2.76,43.38-7.08,54.26-25,12.86-21.17,6.72-38.05,5.62-41.06,15.31,24.8,42.49,28.29,63.28,18.5,20.86-9.82,25.21-34.65,25.61-37.12"/>
          <path class="cls-2" d="M2.41,707.99c20.74,1.34,38.4-11.87,41.89-28.99,3.93-19.24-11.95-34.02-12.68-34.68"/>
          <path class="cls-2" d="M2.41,687.95c6.87,2.23,14.23.5,18.8-4.42,4.91-5.29,4.51-12.01,4.42-13.25"/>
          <path class="cls-2" d="M46.14,803.89c9.31-17.56,4.78-36.93-9.12-43.48-10.22-4.82-24.91-1.2-34.61,7.87"/>
          <path class="cls-2" d="M2.41,794.61c0-12.29,10.68-20.54,19.47-19.02,7.94,1.37,14.85,10.78,12.91,21.51"/>
          <path class="cls-2" d="M142.47,683.19c11.06,30.72,46.15,43.51,71.11,30.57,22.77-11.8,33.35-43.07,19.93-69.44"/>
          <path class="cls-2" d="M163.44,709.9c20.08,8.6,42.42.92,51.39-15.55,6.89-12.66,5.16-29.17-4.32-41.84"/>
          <path class="cls-2" d="M181.02,644.9c-11.77,5.14-18.74,16.75-17.42,27.72,1.69,14.02,16.76,25.55,33.76,22.58"/>
          <path class="cls-2" d="M157.8,794.53c-23.81-2.62-30.23-19.19-25.05-33.48,3.66-10.09,15.76-17.21,25.81-14.39,14.71,4.13,24.11,25.11,12.78,32.8-2.45,1.66-14.65,10.29-24.05-3.88"/>
          <path class="cls-2" d="M230.44,739.34c25.63,1.89,44.93-11.04,57.21-32.79,16.81-29.78,1.74-60.02.59-62.23"/>
          <path class="cls-2" d="M230.44,739.52c24.57-4.45,43.41-21.27,47.51-42.06,3.03-15.37-2.91-28.22-5.67-33.35"/>
          <path class="cls-2" d="M106.47,807.01c-31.07-9.17-51-37.1-48.88-65.18,2.36-31.31,31.01-47.78,33.34-49.07"/>
          <path class="cls-2" d="M35,795.64c-5.8-8.13-17.21-8.99-23.53-3.14-6.34,5.88-6.31,17.39,1.44,23.76"/>
        </g>
        <g>
          <path class="cls-1" d="M288.8,645.78c-1.41-4.09-15.69-47.63,10.27-82.58,24.2-32.58,73.1-43.89,116.17-23.44-11.07-36.53,7.85-75.74,42.8-89.67,35.74-14.25,77.36,2.27,93.75,37.7-11.91-20.11-8.51-44.27,6.11-57.07,14.99-13.1,35.39-8.69,37.7-8.15,0,74.4,0,148.8,0,223.2"/>
          <path class="cls-2" d="M414.44,537.49c17.42,25.69,51.37,29.47,69.97,13.59,15.15-12.93,20.64-38.15,8.83-56.73-12.21-19.19-35.68-20-37.7-20.04"/>
          <path class="cls-2" d="M438.35,557.01c-21-8.56-31.56-38.89-23.22-52.31,6.51-10.47,18.18-23.8,45.52-14.16"/>
          <path class="cls-2" d="M464.68,475.51c32.63,1.47,58.43,28.8,58.12,60.97-.3,31.48-25.5,57.97-57.41,59.78-14.57-31.35-49.92-46.64-80.62-36.68-33.85,10.98-53.7,49.96-41.21,86.2"/>
          <path class="cls-2" d="M595.61,561.1c-22.05-2.76-43.38,7.08-54.26,25-12.86,21.17-6.72,38.05-5.62,41.06-15.31-24.8-42.49-28.29-63.28-18.5-20.86,9.82-25.21,34.65-25.61,37.12"/>
          <path class="cls-2" d="M595.61,582.11c-20.74-1.34-38.4,11.87-41.89,28.99-3.93,19.24,11.95,34.02,12.68,34.68"/>
          <path class="cls-2" d="M595.61,602.15c-6.87-2.23-14.23-.5-18.8,4.42-4.91,5.29-4.51,12.01-4.42,13.25"/>
          <path class="cls-2" d="M551.88,486.21c-9.31,17.56-4.78,36.93,9.12,43.48,10.22,4.82,24.91,1.2,34.61-7.87"/>
          <path class="cls-2" d="M595.61,495.49c0,12.29-10.68,20.54-19.47,19.02-7.94-1.37-14.85-10.78-12.91-21.51"/>
          <path class="cls-2" d="M455.55,606.91c-11.06-30.72-46.15-43.51-71.11-30.57-22.77,11.8-33.35,43.07-19.93,69.44"/>
          <path class="cls-2" d="M383.19,595.75c-6.89,12.66-5.16,29.17,4.32,41.84"/>
          <path class="cls-2" d="M434.58,580.2c-20.08-8.6-42.42-.92-51.39,15.55"/>
          <path class="cls-2" d="M417,645.2c11.77-5.14,18.74-16.75,17.42-27.72-1.69-14.02-16.76-25.55-33.76-22.58"/>
          <path class="cls-2" d="M440.22,495.57c23.81,2.62,30.23,19.19,25.05,33.48-3.66,10.09-15.76,17.21-25.81,14.39-14.71-4.13-24.11-25.11-12.78-32.8,2.45-1.66,14.65-10.29,24.05,3.88"/>
          <path class="cls-2" d="M367.58,550.76c-25.63-1.89-44.93,11.04-57.21,32.79-16.81,29.78-1.74,60.02-.59,62.23"/>
          <path class="cls-2" d="M367.58,550.58c-24.57,4.45-43.41,21.27-47.51,42.06-3.03,15.37,2.91,28.22,5.67,33.35"/>
          <path class="cls-2" d="M491.55,483.08c31.07,9.17,51,37.1,48.88,65.18-2.36,31.31-31.01,47.78-33.34,49.07"/>
          <path class="cls-2" d="M563.02,494.46c5.8,8.13,17.21,8.99,23.53,3.14,6.34-5.88,6.31-17.39-1.44-23.76"/>
        </g>
      </g>
    </g>
  </g>
</svg>