<svg width="23" height="16" viewBox="0 0 23 16" fill="none" xmlns="http://www.w3.org/2000/svg">
<g id="burger menu" clip-path="url(#clip0_4_589)">
<path id="Vector" d="M21.9375 6.40625H1.4375C0.999998 6.40625 0.734375 6.5625 0.640625 6.875C0.546875 7.1875 0.5 7.5625 0.5 8C0.5 8.4375 0.546875 8.8125 0.640625 9.125C0.734375 9.4375 0.999998 9.59375 1.4375 9.59375H21.9375C22.375 9.59375 22.6406 9.4375 22.7344 9.125C22.8281 8.8125 22.875 8.4375 22.875 8C22.875 7.5625 22.8281 7.1875 22.7344 6.875C22.6406 6.5625 22.375 6.40625 21.9375 6.40625ZM21.9375 12.8125H1.4375C0.999998 12.8125 0.734375 12.9687 0.640625 13.2812C0.546875 13.5938 0.5 13.9687 0.5 14.4062C0.5 14.8438 0.546875 15.2187 0.640625 15.5312C0.734375 15.8438 0.999998 16 1.4375 16H21.9375C22.375 16 22.6406 15.8438 22.7344 15.5312C22.8281 15.2187 22.875 14.8438 22.875 14.4062C22.875 13.9687 22.8281 13.5938 22.7344 13.2812C22.6406 12.9687 22.375 12.8125 21.9375 12.8125ZM1.4375 3.21875H21.9375C22.375 3.21875 22.6406 3.0625 22.7344 2.75C22.8281 2.4375 22.875 2.05209 22.875 1.59375C22.875 1.15625 22.8281 0.781252 22.7344 0.46875C22.6406 0.156248 22.375 0 21.9375 0H1.4375C0.999998 0 0.734375 0.156248 0.640625 0.46875C0.546875 0.781252 0.5 1.15625 0.5 1.59375C0.5 2.05209 0.546875 2.4375 0.640625 2.75C0.734375 3.0625 0.999998 3.21875 1.4375 3.21875Z" fill="black"/>
</g>
<defs>
<clipPath id="clip0_4_589">
<rect width="22.375" height="16" fill="white" transform="translate(0.625)"/>
</clipPath>
</defs>
</svg>
