<svg width="26" height="26" viewBox="0 0 26 26" fill="none" xmlns="http://www.w3.org/2000/svg">
<g id="facebook circle 1" clip-path="url(#clip0_39_31)">
<path id="Vector" d="M12.5736 0.5C10.8461 0.5 9.21673 0.833723 7.68551 1.50118C6.15429 2.149 4.8194 3.0422 3.6808 4.1808C2.5422 5.3194 1.649 6.65429 1.00118 8.18551C0.333723 9.71673 0 11.3461 0 13.0736C0 14.6441 0.274831 16.1262 0.824499 17.52C1.37417 18.9335 2.12014 20.1898 3.06243 21.2892C4.00472 22.3885 5.12367 23.3013 6.41932 24.0277C7.71497 24.754 9.10875 25.2448 10.6007 25.5V16.6955H7.4205V13.0736H10.6007V10.3057C10.6007 8.73517 11.0326 7.52788 11.8963 6.68375C12.7601 5.83961 13.9183 5.41755 15.371 5.41755C16.0581 5.41755 16.6961 5.45681 17.285 5.53534C17.874 5.61386 18.1684 5.65312 18.1684 5.65312V8.74499H16.5783C15.7931 8.74499 15.2581 8.95112 14.9735 9.36337C14.6888 9.77562 14.5465 10.2271 14.5465 10.7179V13.0736H18.0212L17.4617 16.6955H14.5465V25.4706C16.0385 25.235 17.4323 24.754 18.7279 24.0277C20.0236 23.3013 21.1474 22.3885 22.0995 21.2892C23.0516 20.1898 23.7927 18.9335 24.3227 17.52C24.8724 16.1262 25.1472 14.6441 25.1472 13.0736C25.1472 11.3461 24.8135 9.71673 24.1461 8.18551C23.4982 6.65429 22.605 5.3194 21.4664 4.1808C20.3278 3.0422 18.9929 2.149 17.4617 1.50118C15.9305 0.833723 14.3011 0.5 12.5736 0.5Z" fill="black"/>
</g>
<defs>
<clipPath id="clip0_39_31">
<rect width="25.1472" height="25" fill="white" transform="translate(0 0.5)"/>
</clipPath>
</defs>
</svg>
