<svg width="24" height="14" viewBox="0 0 24 14" fill="none" xmlns="http://www.w3.org/2000/svg">
<path id="Vector" d="M23.6875 0.276794C23.5 0.0892934 23.2656 -0.00445557 22.9844 -0.00445557C22.7031 -0.00445557 22.4688 0.0892934 22.2812 0.276794L12 11.558L1.71875 0.276794C1.53125 0.0892934 1.29688 -0.00445557 1.01562 -0.00445557C0.734374 -0.00445557 0.500001 0.0892934 0.3125 0.276794C0.104166 0.485128 0 0.724709 0 0.995544C0 1.26638 0.104166 1.50596 0.3125 1.71429L11.25 13.7143C11.3542 13.8185 11.4687 13.8966 11.5938 13.9487C11.7188 14.0008 11.8542 14.0164 12 13.9955C12.1458 14.0164 12.2812 14.0008 12.4062 13.9487C12.5313 13.8966 12.6458 13.8185 12.75 13.7143L23.6875 1.71429C23.8958 1.50596 24 1.26638 24 0.995544C24 0.724709 23.8958 0.485128 23.6875 0.276794Z" fill="black"/>
</svg>
