<svg width="27" height="27" viewBox="0 0 27 27" fill="none" xmlns="http://www.w3.org/2000/svg">
<g id="home circle 1">
<path id="Vector" d="M23.7037 13.864L13.3618 2.35053C13.1464 2.11684 12.8591 2 12.5 2C12.1409 2 11.8536 2.11684 11.6382 2.35053L1.29625 13.864C1.20648 13.9719 1.13466 14.0887 1.08079 14.2145C1.02693 14.3404 0.999999 14.4842 0.999999 14.646C0.999999 14.9515 1.11221 15.2167 1.33665 15.4414C1.56108 15.6661 1.83489 15.7784 2.15808 15.7784H4.44731V23.8406C4.44731 24.1641 4.55952 24.4383 4.78396 24.663C5.00839 24.8877 5.2822 25 5.60539 25H19.3946C19.7178 25 19.9916 24.8877 20.216 24.663C20.4405 24.4383 20.5527 24.1641 20.5527 23.8406V15.7784H22.8419C23.1651 15.7784 23.4389 15.6661 23.6633 15.4414C23.8878 15.2167 24 14.9515 24 14.646C24 14.4842 23.9731 14.3404 23.9192 14.2145C23.8653 14.0887 23.7935 13.9719 23.7037 13.864ZM12.5 18.0973C11.5484 18.0973 10.736 17.7603 10.0626 17.0862C9.38934 16.4121 9.05269 15.5987 9.05269 14.646C9.05269 13.6932 9.38934 12.8798 10.0626 12.2057C10.736 11.5316 11.5484 11.1946 12.5 11.1946C13.4516 11.1946 14.264 11.5316 14.9374 12.2057C15.6107 12.8798 15.9473 13.6932 15.9473 14.646C15.9473 15.5987 15.6107 16.4121 14.9374 17.0862C14.264 17.7603 13.4516 18.0973 12.5 18.0973Z" fill="black"/>
</g>
</svg>
