<svg width="25" height="26" viewBox="0 0 25 26" fill="none" xmlns="http://www.w3.org/2000/svg">
<g id="instagram 1" clip-path="url(#clip0_39_11)">
<path id="Vector" d="M12.4675 6.57143C11.5801 6.57143 10.7468 6.73376 9.96753 7.05844C9.18831 7.40476 8.51191 7.86472 7.93831 8.43831C7.36472 9.01191 6.90476 9.68831 6.55844 10.4675C6.23376 11.2468 6.07143 12.0801 6.07143 12.9675C6.07143 13.855 6.23376 14.6883 6.55844 15.4675C6.90476 16.2468 7.36472 16.9232 7.93831 17.4968C8.51191 18.0703 9.18831 18.5303 9.96753 18.8766C10.7468 19.2013 11.5801 19.3636 12.4675 19.3636C13.355 19.3636 14.1883 19.2013 14.9675 18.8766C15.7468 18.5303 16.4232 18.0703 16.9968 17.4968C17.5703 16.9232 18.0303 16.2468 18.3766 15.4675C18.7013 14.6883 18.8636 13.855 18.8636 12.9675C18.8636 12.0801 18.7013 11.2468 18.3766 10.4675C18.0303 9.68831 17.5703 9.01191 16.9968 8.43831C16.4232 7.86472 15.7468 7.40476 14.9675 7.05844C14.1883 6.73376 13.355 6.57143 12.4675 6.57143ZM12.4675 17.1234C11.3203 17.1234 10.3409 16.7175 9.52922 15.9058C8.71753 15.0942 8.31169 14.1147 8.31169 12.9675C8.31169 11.8203 8.71753 10.8409 9.52922 10.0292C10.3409 9.21753 11.3203 8.81169 12.4675 8.81169C13.6147 8.81169 14.5942 9.21753 15.4058 10.0292C16.2175 10.8409 16.6234 11.8203 16.6234 12.9675C16.6234 14.1147 16.2175 15.0942 15.4058 15.9058C14.5942 16.7175 13.6147 17.1234 12.4675 17.1234ZM20.6169 6.31169C20.6169 6.74459 20.4708 7.10173 20.1786 7.38312C19.8864 7.6645 19.5346 7.80519 19.1234 7.80519C18.7121 7.80519 18.3604 7.6645 18.0682 7.38312C17.776 7.10173 17.6299 6.74459 17.6299 6.31169C17.6299 5.90043 17.776 5.55411 18.0682 5.27273C18.3604 4.99134 18.7121 4.85065 19.1234 4.85065C19.5346 4.85065 19.8864 4.99134 20.1786 5.27273C20.4708 5.55411 20.6169 5.90043 20.6169 6.31169ZM24.2857 4.81818C23.961 3.97402 23.4849 3.2381 22.8571 2.61039C22.2294 1.98268 21.5043 1.5065 20.6818 1.18182L20.6494 1.14935C20.1948 0.97619 19.7132 0.840909 19.2045 0.743506C18.6959 0.646104 18.171 0.597403 17.6299 0.597403H17.5974C16.948 0.554112 16.3528 0.527057 15.8117 0.516234C15.2706 0.505411 14.1559 0.5 12.4675 0.5C10.7792 0.5 9.66451 0.505411 9.12338 0.516234C8.58225 0.527057 7.98702 0.554112 7.33766 0.597403C6.79653 0.597403 6.26624 0.651515 5.74675 0.75974C5.22727 0.867966 4.72944 1.00866 4.25325 1.18182L4.31818 1.14935C3.47402 1.49567 2.7381 1.98268 2.11039 2.61039C1.48268 3.2381 1.0065 3.95238 0.681818 4.75325L0.649351 4.81818C0.47619 5.25108 0.340909 5.72727 0.243506 6.24675C0.146104 6.76624 0.0865797 7.29653 0.0649351 7.83766C0.0432904 8.50866 0.0270566 9.10931 0.0162338 9.63961C0.00541091 10.1699 0 11.2792 0 12.9675C0 14.6559 0.00541091 15.7706 0.0162338 16.3117C0.0270566 16.8528 0.0432904 17.4589 0.0649351 18.1299C0.0865797 18.6494 0.146104 19.158 0.243506 19.6558C0.340909 20.1537 0.47619 20.6515 0.649351 21.1494C0.995673 21.9935 1.48268 22.7294 2.11039 23.3571C2.7381 23.9849 3.45238 24.461 4.25325 24.7857H4.31818C4.75108 24.9805 5.22186 25.132 5.73052 25.2403C6.23918 25.3485 6.76407 25.4026 7.30519 25.4026H7.33766C8.00866 25.4459 8.60931 25.4729 9.13961 25.4838C9.66992 25.4946 10.7792 25.5 12.4675 25.5C14.1559 25.5 15.2706 25.4946 15.8117 25.4838C16.3528 25.4729 16.9589 25.4459 17.6299 25.4026C18.171 25.4026 18.7013 25.3485 19.2208 25.2403C19.7403 25.132 20.2381 24.9913 20.7143 24.8182L20.6494 24.8506C21.4935 24.5043 22.2294 24.0173 22.8571 23.3896C23.4849 22.7619 23.961 22.0476 24.2857 21.2468V21.1818C24.4805 20.7056 24.6266 20.2132 24.724 19.7045C24.8214 19.1959 24.8701 18.6818 24.8701 18.1623C24.8918 17.4913 24.908 16.8907 24.9188 16.3604C24.9297 15.8301 24.9351 14.7208 24.9351 13.0325C24.9351 11.3225 24.9351 10.2024 24.9351 9.67208C24.9351 9.14177 24.9134 8.54113 24.8701 7.87013C24.8701 7.329 24.816 6.79329 24.7078 6.26299C24.5996 5.73268 24.4481 5.22944 24.2532 4.75325L24.2857 4.81818ZM22.5974 18C22.5974 18.4329 22.5595 18.8496 22.4838 19.25C22.408 19.6504 22.2944 20.0346 22.1429 20.4026L22.1753 20.3377C21.9589 20.9004 21.645 21.382 21.2338 21.7825C20.8225 22.1829 20.3571 22.4913 19.8377 22.7078H19.8052C19.4589 22.8593 19.0909 22.9675 18.7013 23.0325C18.3117 23.0974 17.9113 23.1407 17.5 23.1623C16.829 23.184 16.2392 23.2002 15.7305 23.211C15.2219 23.2219 14.1234 23.2273 12.4351 23.2273C10.7467 23.2273 9.64827 23.2219 9.13961 23.211C8.63095 23.2002 8.04113 23.184 7.37013 23.1623C6.93723 23.1407 6.52598 23.092 6.13636 23.0162C5.74675 22.9405 5.36797 22.8377 5 22.7078H5.03247C4.49134 22.513 4.01515 22.21 3.6039 21.7987C3.19264 21.3874 2.87879 20.9113 2.66234 20.3701V20.3377C2.53247 20.013 2.42965 19.6558 2.3539 19.2662C2.27814 18.8766 2.24026 18.4654 2.24026 18.0325C2.19697 17.3831 2.17532 16.7987 2.17532 16.2792C2.17532 15.7597 2.17532 14.6559 2.17532 12.9675C2.17532 11.2792 2.17532 10.1807 2.17532 9.67208C2.17532 9.16342 2.19697 8.5736 2.24026 7.9026C2.24026 7.49134 2.27814 7.0855 2.3539 6.68506C2.42965 6.28463 2.54329 5.90043 2.69481 5.53247L2.66234 5.56494C2.87879 5.02381 3.19264 4.54762 3.6039 4.13636C4.01515 3.72511 4.49134 3.41126 5.03247 3.19481C5.37879 3.06493 5.74675 2.96212 6.13636 2.88636C6.52598 2.81061 6.93723 2.77273 7.37013 2.77273C8.01948 2.75108 8.60389 2.73485 9.12338 2.72403C9.64286 2.7132 10.7467 2.70779 12.4351 2.70779C14.1234 2.70779 15.2219 2.70779 15.7305 2.70779C16.2392 2.70779 16.829 2.72944 17.5 2.77273C17.9113 2.77273 18.3117 2.81061 18.7013 2.88636C19.0909 2.96212 19.4697 3.07576 19.8377 3.22727L19.8052 3.19481C20.3463 3.41126 20.8225 3.72511 21.2338 4.13636C21.645 4.54762 21.9589 5.02381 22.1753 5.56494C22.3052 5.91126 22.408 6.27922 22.4838 6.66883C22.5595 7.05844 22.5974 7.45887 22.5974 7.87013V7.9026C22.619 8.55195 22.6353 9.13636 22.6461 9.65584C22.6569 10.1753 22.6623 11.2792 22.6623 12.9675C22.6623 14.6559 22.6623 15.7543 22.6623 16.263C22.6623 16.7716 22.6515 17.3506 22.6299 18H22.5974Z" fill="black"/>
</g>
<defs>
<clipPath id="clip0_39_11">
<rect width="24.9351" height="25" fill="white" transform="translate(0 0.5)"/>
</clipPath>
</defs>
</svg>
