<svg width="20" height="18" viewBox="0 0 20 18" fill="none" xmlns="http://www.w3.org/2000/svg">
<g id="language 1" clip-path="url(#clip0_4_583)">
<path id="Vector" d="M14.2729 10.8169H17.4842C17.6626 10.0282 17.7518 9.42254 17.7518 9C17.7518 8.57746 17.6626 7.97184 17.4842 7.1831H14.2729C14.3621 7.77465 14.4067 8.38028 14.4067 9C14.4067 9.61972 14.3621 10.2253 14.2729 10.8169ZM12.5781 15.8028C13.3214 15.5775 14.0945 15.1479 14.8973 14.5141C15.7001 13.8803 16.3097 13.2394 16.7259 12.5915H13.9161C13.6187 13.7183 13.1727 14.7887 12.5781 15.8028ZM12.355 10.8169C12.4442 10.2253 12.4888 9.61972 12.4888 9C12.4888 8.38028 12.4442 7.77465 12.355 7.1831H7.89495C7.80575 7.77465 7.76115 8.38028 7.76115 9C7.76115 9.61972 7.80575 10.2253 7.89495 10.8169H12.355ZM10.125 16.1831C10.9576 15.0282 11.5671 13.831 11.9536 12.5915H8.29636C8.6829 13.831 9.29244 15.0282 10.125 16.1831ZM6.33392 5.40845C6.69073 4.19718 7.13673 3.12677 7.67195 2.19718C6.9286 2.42254 6.14809 2.85211 5.3304 3.48592C4.51271 4.11972 3.9106 4.76056 3.52406 5.40845H6.33392ZM3.52406 12.5915C3.9106 13.2394 4.51271 13.8803 5.3304 14.5141C6.14809 15.1479 6.9286 15.5775 7.67195 15.8028C7.07727 14.7887 6.63126 13.7183 6.33392 12.5915H3.52406ZM2.76585 10.8169H5.97711C5.88791 10.2253 5.84331 9.61972 5.84331 9C5.84331 8.38028 5.88791 7.77465 5.97711 7.1831H2.76585C2.58744 7.97184 2.49824 8.57746 2.49824 9C2.49824 9.42254 2.58744 10.0282 2.76585 10.8169ZM10.125 1.8169C9.29244 2.97184 8.6829 4.16901 8.29636 5.40845H11.9536C11.5671 4.16901 10.9576 2.97184 10.125 1.8169ZM16.7259 5.40845C16.3097 4.76056 15.7001 4.11972 14.8973 3.48592C14.0945 2.85211 13.3214 2.42254 12.5781 2.19718C13.1133 3.12677 13.5593 4.19718 13.9161 5.40845H16.7259ZM3.39026 2.66197C5.26351 0.887315 7.5084 0 10.125 0C12.7416 0 14.9791 0.880273 16.8374 2.64085C18.6958 4.40142 19.625 6.52111 19.625 9C19.625 11.4789 18.6958 13.5986 16.8374 15.3592C14.9791 17.1197 12.7416 18 10.125 18C7.5084 18 5.27094 17.1197 3.41256 15.3592C1.55418 13.5986 0.625 11.4789 0.625 9C0.625 6.52111 1.54674 4.40846 3.39026 2.66197Z" fill="black"/>
</g>
<defs>
<clipPath id="clip0_4_583">
<rect width="19" height="18" fill="white" transform="translate(0.625)"/>
</clipPath>
</defs>
</svg>
