<svg width="68" height="54" viewBox="0 0 68 54" fill="none" xmlns="http://www.w3.org/2000/svg">
<g id="logo 2" clip-path="url(#clip0_1_1820)">
<path id="path22766" d="M17.4888 20.0042C17.4885 16.8391 18.4261 13.745 20.1832 11.1132C21.9402 8.4814 24.4377 6.43007 27.3598 5.21862C30.2819 4.00717 33.4974 3.69002 36.5996 4.30727C39.7018 4.92452 42.5515 6.44845 44.7882 8.68634C47.0249 10.9242 48.5482 13.7756 49.1654 16.8798C49.7827 19.984 49.4662 23.2017 48.2559 26.1259C47.0457 29.0501 44.9961 31.5495 42.3662 33.3081C39.7364 35.0666 36.6445 36.0053 33.4816 36.0054C31.3815 36.0056 29.3019 35.5919 27.3617 34.7878C25.4214 33.9838 23.6584 32.8052 22.1733 31.3193C20.6882 29.8335 19.5102 28.0694 18.7064 26.128C17.9026 24.1865 17.4889 22.1056 17.4888 20.0042Z" fill="#74292E"/>
<path id="path22770" d="M33.7141 5.98486C33.7141 5.98486 20.2478 14.1085 29.1263 27.9445C29.1263 27.9445 23.992 25.3557 22.8613 17.8081C22.8271 17.4958 22.4587 17.1244 22.1922 17.883C19.5253 25.5083 23.5068 35.0828 34.3824 34.6208C45.3463 34.1545 47.8344 21.5555 42.1878 13.7741C41.9833 13.4554 41.6891 13.3727 41.8579 13.988C42.9545 17.9657 41.1283 22.6321 40.4764 23.688C43.7539 12.9128 34.438 6.07755 33.7141 5.98629" fill="white"/>
<path id="path22802" d="M61.9254 53.7781V43.9704H67.0618V44.7069H62.759V48.3324H66.7704V49.0682H62.759V53.0416H67.1167V53.7781H61.9254ZM56.8382 53.9456C56.238 53.9922 55.6384 53.8482 55.1249 53.5339C54.6114 53.2196 54.2101 52.7511 53.9782 52.1953C53.8313 51.7797 53.7519 51.3433 53.7431 50.9026H54.576C54.5589 51.2093 54.6069 51.5161 54.7168 51.8029C54.8268 52.0896 54.9962 52.3498 55.2138 52.5664C55.4315 52.7829 55.6925 52.9509 55.9798 53.0592C56.267 53.1675 56.5738 53.2137 56.8802 53.1948C57.1523 53.2189 57.4264 53.1874 57.6859 53.1023C57.9455 53.0172 58.1851 52.8802 58.3901 52.6997C58.5952 52.5191 58.7615 52.2988 58.8789 52.052C58.9963 51.8053 59.0625 51.5372 59.0733 51.2641C59.0736 50.9758 59.0028 50.6919 58.8672 50.4376C58.7316 50.1833 58.5354 49.9663 58.2959 49.8061C57.5727 49.3384 56.8055 48.9427 56.0052 48.6247C55.6641 48.4822 55.3385 48.3052 55.0334 48.0964C54.73 47.8911 54.4825 47.6135 54.3129 47.2887C54.1434 46.9638 54.0573 46.6019 54.0623 46.2355C54.0623 44.652 55.4502 43.8043 56.893 43.8043C57.4798 43.7597 58.0642 43.9173 58.5492 44.2508C59.0341 44.5844 59.3905 45.0739 59.5592 45.638C59.6187 45.8838 59.6512 46.1353 59.6561 46.3881H58.8367C58.8191 46.0891 58.7439 45.7964 58.6151 45.5261C58.4381 45.2121 58.1763 44.9544 57.8596 44.7825C57.5429 44.6106 57.1842 44.5315 56.8246 44.5543C56.5914 44.5335 56.3564 44.5597 56.1335 44.6314C55.9106 44.7031 55.7043 44.8188 55.527 44.9717C55.3496 45.1246 55.2046 45.3116 55.1008 45.5216C54.9969 45.7316 54.9362 45.9603 54.9222 46.1941C54.9222 48.388 59.9482 47.9302 59.9482 51.2078C59.9482 52.9859 58.4904 53.9456 56.8382 53.9456ZM49.1603 53.9449C48.5602 53.9915 47.9607 53.8474 47.4473 53.5331C46.9339 53.2188 46.5328 52.7504 46.301 52.1945C46.153 51.7793 46.0731 51.3427 46.0644 50.9019H46.8974C46.8805 51.2086 46.9287 51.5154 47.0387 51.8021C47.1488 52.0888 47.3183 52.3489 47.536 52.5654C47.7537 52.7819 48.0147 52.9499 48.3019 53.0582C48.5891 53.1666 48.8959 53.2129 49.2023 53.1941C49.4744 53.2183 49.7486 53.1869 50.0083 53.1018C50.2679 53.0167 50.5075 52.8798 50.7127 52.6992C50.9178 52.5187 51.0842 52.2983 51.2017 52.0515C51.3191 51.8047 51.3853 51.5366 51.3961 51.2634C51.3964 50.9751 51.3256 50.6912 51.19 50.4369C51.0544 50.1826 50.8582 49.9656 50.6187 49.8054C49.8953 49.3381 49.1281 48.9425 48.328 48.624C47.9868 48.4817 47.6612 48.3047 47.3562 48.0957C47.0523 47.8909 46.8043 47.6134 46.6346 47.2885C46.4649 46.9635 46.3789 46.6014 46.3843 46.2348C46.3843 44.6513 47.773 43.8035 49.2158 43.8035C49.8026 43.7589 50.387 43.9166 50.8719 44.2503C51.3568 44.584 51.713 45.0737 51.8813 45.638C51.9408 45.8838 51.9733 46.1353 51.9782 46.3881H51.1588C51.1415 46.0891 51.0663 45.7963 50.9372 45.5261C50.7605 45.212 50.4988 44.9542 50.1821 44.7823C49.8655 44.6104 49.5069 44.5314 49.1474 44.5543C48.9142 44.5335 48.6792 44.5597 48.4563 44.6314C48.2334 44.7031 48.0271 44.8188 47.8498 44.9717C47.6724 45.1246 47.5274 45.3116 47.4236 45.5216C47.3197 45.7316 47.259 45.9603 47.2451 46.1941C47.2451 48.388 52.2696 47.9302 52.2696 51.2078C52.2696 52.9859 50.8125 53.9449 49.1603 53.9449ZM42.9822 43.9704H43.8429V53.7781H42.9822V43.9704ZM40.3716 51.555C40.0937 53.2362 38.6787 53.9449 37.0941 53.9449C35.7474 53.9449 34.3595 53.403 33.9149 52.0134C33.7942 51.5893 33.7428 51.1485 33.7624 50.708V43.9711H34.5953C34.5953 46.1649 34.5811 48.3459 34.5811 50.5419C34.552 51.103 34.6666 51.6623 34.9138 52.1667C35.1529 52.5167 35.481 52.7965 35.8643 52.9771C36.2476 53.1577 36.6721 53.2327 37.0941 53.1941C37.6044 53.1914 38.1074 53.073 38.5654 52.8476C39.7182 52.2494 39.5793 51.0003 39.5793 49.9023V43.9711H40.4264V50.6802C40.4287 50.9728 40.4099 51.2651 40.3701 51.555M28.8062 53.9449C28.2062 53.9915 27.6067 53.8474 27.0933 53.5331C26.5799 53.2188 26.1788 52.7504 25.947 52.1945C25.799 51.7793 25.7191 51.3427 25.7104 50.9019H26.5433C26.5265 51.2088 26.5747 51.5157 26.6849 51.8026C26.7951 52.0895 26.9647 52.3497 27.1827 52.5663C27.4006 52.7828 27.6619 52.9507 27.9494 53.0589C28.2368 53.1671 28.5439 53.2132 28.8504 53.1941C29.1226 53.2183 29.3968 53.1869 29.6564 53.1018C29.916 53.0167 30.1557 52.8798 30.3608 52.6992C30.566 52.5187 30.7323 52.2983 30.8498 52.0515C30.9673 51.8047 31.0334 51.5366 31.0442 51.2634C31.0445 50.9751 30.9738 50.6912 30.8382 50.4369C30.7026 50.1826 30.5063 49.9656 30.2669 49.8054C29.5435 49.338 28.7763 48.9423 27.9762 48.624C27.6348 48.482 27.3092 48.3049 27.0043 48.0957C26.7004 47.8909 26.4524 47.6134 26.2827 47.2885C26.113 46.9635 26.027 46.6014 26.0325 46.2348C26.0325 44.6513 27.4204 43.8035 28.864 43.8035C29.4508 43.7589 30.0352 43.9166 30.5201 44.2503C31.005 44.584 31.3611 45.0737 31.5294 45.638C31.5897 45.8836 31.6222 46.1352 31.6263 46.3881H30.8062C30.7878 46.0891 30.7121 45.7965 30.5832 45.5261C30.4065 45.212 30.1448 44.9542 29.8281 44.7823C29.5115 44.6104 29.1529 44.5314 28.7934 44.5543C28.5602 44.5335 28.3252 44.5597 28.1023 44.6314C27.8794 44.7031 27.6731 44.8188 27.4958 44.9717C27.3184 45.1246 27.1734 45.3116 27.0696 45.5216C26.9657 45.7316 26.905 45.9603 26.891 46.1941C26.891 48.388 31.9142 47.9317 31.9142 51.2113C31.9142 52.9895 30.4564 53.9485 28.8041 53.9485M19.5494 45.7585C17.8273 45.7585 17.2994 47.4404 17.2994 48.8714C17.2994 50.3451 17.8131 51.9849 19.5794 51.9849C21.2894 51.9849 21.8294 50.3579 21.8294 48.9134C21.8294 47.4262 21.3428 45.7585 19.5494 45.7585ZM19.563 53.9998C16.5078 53.9998 14.6054 51.873 14.6054 48.8714C14.6054 45.8427 16.4935 43.7437 19.5772 43.7437C22.6317 43.7437 24.5348 45.8826 24.5348 48.8714C24.5348 51.873 22.6182 53.9998 19.563 53.9998ZM10.3845 43.9668H12.9823V53.7781H10.3845V43.9668ZM4.47079 49.6079H2.6589V51.8594H4.5684C5.37424 51.8594 6.12379 51.7211 6.12379 50.7479C6.12379 49.7055 5.30442 49.6079 4.47079 49.6079ZM4.34539 45.8697H2.6589V47.7891H4.16655C4.8876 47.7891 5.65212 47.7178 5.65212 46.8023C5.65212 45.9967 5.01087 45.8719 4.34539 45.8719M7.38706 53.2369C6.36746 53.6741 5.25788 53.8599 4.15159 53.7788H0.116699V43.9668H4.13805C5.37424 43.9668 6.91681 43.9946 7.74758 45.0783C8.05769 45.495 8.21947 46.0035 8.20714 46.5228C8.22371 46.9684 8.08836 47.4065 7.82333 47.7649C7.5583 48.1234 7.17934 48.3811 6.74865 48.4956C7.3182 48.5762 7.83867 48.8623 8.21212 49.3001C8.58558 49.7379 8.78627 50.2972 8.77643 50.8727C8.7784 51.3551 8.6504 51.8292 8.4059 52.245C8.16141 52.6607 7.80945 53.0029 7.38706 53.2355" fill="#74292E"/>
<path id="path22806" d="M57.9276 10.758C57.9173 9.47433 57.8405 8.19211 57.6975 6.91644C57.1025 7.59154 56.4692 8.23189 55.8008 8.83435C55.6583 7.63156 55.4218 6.51361 55.2878 5.76855C54.3174 6.77528 53.902 7.20876 53.0883 7.99304C53.2448 8.87489 53.3561 9.76418 53.4218 10.6574C52.6074 11.2656 51.8123 11.7982 51.0613 12.2709C51.171 13.5756 51.213 14.2751 51.2928 15.4479C51.4781 15.3417 52.4913 14.6636 53.6263 13.9328C53.6427 15.1256 53.6762 16.2414 53.6306 17.2161C54.5382 16.7395 55.3788 16.145 56.1307 15.4479C56.2232 14.3544 56.2267 13.2552 56.1414 12.1611C56.7918 11.769 57.3915 11.2982 57.9269 10.7594" fill="white"/>
<path id="path22814" d="M57.9283 10.6433C57.3376 11.1918 56.7014 11.6891 56.0266 12.1299C56.1016 13.1961 56.0914 14.2666 55.996 15.3311C55.3388 15.9835 54.5916 16.5384 53.7773 16.9788C53.8001 16.0135 53.783 14.862 53.7317 13.6813C52.5845 14.4356 51.6113 15.0502 51.4331 15.1557C51.3619 14.0349 51.3369 13.6335 51.2329 12.388C51.949 11.9317 52.7434 11.3777 53.5436 10.7759C53.4509 9.73428 53.3362 8.77961 53.2044 8.05166C53.9518 7.28807 54.3408 6.92445 55.2308 5.94411C55.3782 6.69273 55.5663 7.78501 55.7295 9.0099C56.4304 8.40804 57.0951 7.76524 57.7202 7.08487C57.4836 4.80028 57.0128 2.54612 56.3152 0.357952L56.1891 0.00146484L56.0052 0.32872C56.0052 0.32872 55.9461 0.433528 55.8307 0.625318C55.064 1.90226 51.8385 7.00716 47.5037 10.2056C48.8267 12.0986 49.7528 14.2401 50.2262 16.5011C50.6996 18.762 50.7105 21.0954 50.2582 23.3607C50.8643 23.0455 51.5011 22.708 52.1684 22.3482C53.3266 21.7646 54.4143 21.0503 55.4103 20.2193C56.4167 19.1981 57.1044 17.9059 57.3896 16.5004V16.4961V16.4897C57.7541 14.6317 57.9341 12.7421 57.9269 10.8487C57.9269 10.7774 57.9269 10.7061 57.9269 10.6405M18.1273 27.5622C12.1694 30.8184 13.6528 34.6207 18.0838 36.7318C23.31 39.2272 33.7531 40.4549 38.7827 38.4928C29.5202 38.9919 21.2459 35.74 18.1273 27.5622Z" fill="#74292E"/>
</g>
<defs>
<clipPath id="clip0_1_1820">
<rect width="67" height="54" fill="white" transform="translate(0.116699)"/>
</clipPath>
</defs>
</svg>
