<?xml version="1.0" encoding="UTF-8"?>
<svg id="Calque_1" xmlns="http://www.w3.org/2000/svg" viewBox="0 0 90.66 80.54">
  <defs>
    <style>
      .cls-1 {
        fill: #1d1d1b;
        font-family: Giaza, Giaza;
        font-size: 23.29px;
      }

      .cls-2 {
        fill: none;
        stroke: #1d1d1b;
        stroke-miterlimit: 10;
        stroke-width: 3px;
      }
    </style>
  </defs>
  <g>
    <path class="cls-2" d="M43.96,28.53c-.87,1.21-3.93,5.12-9.25,6.13-1.93.37-3.63.25-4.9.04.92-1.11,1.91-2.46,2.85-4.06.63-1.07,1.14-2.09,1.56-3.04-.83.08-2.9.15-4.91-1.11-3.84-2.42-3.68-7.39-3.67-7.61.81-.21,5.07-1.25,7.78-.06.44.19.86.43.86.43,1.64.93,2.65,2.17,3.2,2.99.04.07-.08-.17-.29-.62-2.06-4.49-1.36-7.3-1.36-7.3.09-.31.19-.55.32-.77,1.06-1.8,2.35-2.82,3.19-3.48.95-.76,2.2-2.04,3.28-4.27.45,7.57.89,15.15,1.34,22.72Z"/>
    <path class="cls-2" d="M43.61,28.53c.87,1.21,3.93,5.12,9.25,6.13,1.93.37,3.63.25,4.9.04-.92-1.11-1.91-2.46-2.85-4.06-.63-1.07-1.14-2.09-1.56-3.04.83.08,2.9.15,4.91-1.11,3.84-2.42,3.68-7.39,3.67-7.61-.81-.21-5.07-1.25-7.78-.06-.44.19-.86.43-.86.43-1.64.93-2.65,2.17-3.2,2.99-.04.07.08-.17.29-.62,2.06-4.49,1.36-7.3,1.36-7.3-.09-.31-.19-.55-.32-.77-1.06-1.8-2.35-2.82-3.19-3.48-.95-.76-2.2-2.04-3.28-4.27-.45,7.57-.89,15.15-1.34,22.72Z"/>
  </g>
  <text class="cls-1" transform="translate(0 58.15)"><tspan x="0" y="0">Vignoble</tspan></text>
</svg>