<?xml version="1.0" encoding="UTF-8"?>
<svg xmlns="http://www.w3.org/2000/svg" version="1.1" viewBox="0 0 90.7 80.5">
  <defs>
    <style>
      .cls-1 {
        fill: none;
        stroke: #1d1d1b;
        stroke-miterlimit: 10;
        stroke-width: 3px;
      }
    </style>
  </defs>
  <!-- Generator: Adobe Illustrator 28.6.0, SVG Export Plug-In . SVG Version: 1.2.0 Build 709)  -->
  <g>
    <g id="Calque_1">
      <g>
        <path class="cls-1" d="M44,49c-.9,1.2-3.9,5.1-9.2,6.1-1.9.4-3.6.2-4.9,0,.9-1.1,1.9-2.5,2.9-4.1.6-1.1,1.1-2.1,1.6-3-.8,0-2.9.1-4.9-1.1-3.8-2.4-3.7-7.4-3.7-7.6.8-.2,5.1-1.2,7.8,0,.4.2.9.4.9.4,1.6.9,2.7,2.2,3.2,3,0,0,0-.2-.3-.6-2.1-4.5-1.4-7.3-1.4-7.3,0-.3.2-.6.3-.8,1.1-1.8,2.3-2.8,3.2-3.5,1-.8,2.2-2,3.3-4.3.5,7.6.9,15.1,1.3,22.7h0Z"/>
        <path class="cls-1" d="M43.6,49c.9,1.2,3.9,5.1,9.2,6.1,1.9.4,3.6.2,4.9,0-.9-1.1-1.9-2.5-2.8-4.1-.6-1.1-1.1-2.1-1.6-3,.8,0,2.9.1,4.9-1.1,3.8-2.4,3.7-7.4,3.7-7.6-.8-.2-5.1-1.2-7.8,0-.4.2-.9.4-.9.4-1.6.9-2.7,2.2-3.2,3,0,0,0-.2.3-.6,2.1-4.5,1.4-7.3,1.4-7.3,0-.3-.2-.6-.3-.8-1.1-1.8-2.3-2.8-3.2-3.5-1-.8-2.2-2-3.3-4.3-.5,7.6-.9,15.1-1.3,22.7h0Z"/>
      </g>
    </g>
  </g>
</svg>