<svg width="13" height="17" viewBox="0 0 13 17" fill="none" xmlns="http://www.w3.org/2000/svg">
<g id="right arrow 2">
<path id="Vector" d="M3.25156 13.4415C3.28802 13.4571 3.32448 13.4707 3.36094 13.4824C3.3974 13.4941 3.43385 13.5 3.47031 13.5C3.52135 13.5 3.56875 13.4922 3.6125 13.4766C3.65625 13.461 3.69635 13.4375 3.73281 13.4063L9.80312 8.90984C9.86146 8.863 9.90885 8.80445 9.94531 8.73419C9.98177 8.66393 10 8.58587 10 8.5C10 8.41413 9.98177 8.33607 9.94531 8.26581C9.90885 8.19555 9.86146 8.137 9.80312 8.09016L3.73281 3.59368C3.69635 3.56245 3.65625 3.53903 3.6125 3.52342C3.56875 3.50781 3.52135 3.5 3.47031 3.5C3.33906 3.5 3.22787 3.54879 3.13672 3.64637C3.04557 3.74395 3 3.863 3 4.00351V12.9965C3 13.0902 3.0237 13.176 3.07109 13.2541C3.11849 13.3322 3.17865 13.3946 3.25156 13.4415Z" fill="white"/>
</g>
</svg>
