<svg width="23" height="20" viewBox="0 0 23 20" fill="none" xmlns="http://www.w3.org/2000/svg">
<g id="shopping cart 1" clip-path="url(#clip0_4_585)">
<path id="Vector" d="M10.7012 18.2485C10.7012 18.7373 10.5221 19.1514 10.1641 19.4908C9.80599 19.8303 9.3763 20 8.875 20C8.3737 20 7.94401 19.8303 7.58594 19.4908C7.22786 19.1514 7.04883 18.7373 7.04883 18.2485C7.04883 17.7732 7.22786 17.3659 7.58594 17.0265C7.94401 16.687 8.3737 16.5173 8.875 16.5173C9.3763 16.5173 9.80599 16.687 10.1641 17.0265C10.5221 17.3659 10.7012 17.7732 10.7012 18.2485ZM20.7988 18.2485C20.7988 18.7373 20.6198 19.1514 20.2617 19.4908C19.9036 19.8303 19.4668 20 18.9512 20C18.4499 20 18.0202 19.8303 17.6621 19.4908C17.304 19.1514 17.125 18.7373 17.125 18.2485C17.125 17.7732 17.304 17.3659 17.6621 17.0265C18.0202 16.687 18.4499 16.5173 18.9512 16.5173C19.4668 16.5173 19.9036 16.687 20.2617 17.0265C20.6198 17.3659 20.7988 17.7732 20.7988 18.2485ZM22.4316 4.70468C22.3457 4.56891 22.2383 4.47726 22.1094 4.42974C21.9805 4.38221 21.8444 4.35845 21.7012 4.35845H6.85547L6.125 0.692464C6.08203 0.47522 5.97461 0.3055 5.80273 0.183299C5.63086 0.0610991 5.43034 0 5.20117 0H1.54883C1.26237 0 1.03679 0.0814657 0.87207 0.244399C0.707356 0.407333 0.625 0.617786 0.625 0.875764C0.625 1.13374 0.707356 1.34419 0.87207 1.50713C1.03679 1.67006 1.26237 1.75153 1.54883 1.75153H4.4707L5.20117 5.39715C5.20117 5.39715 5.20117 5.41073 5.20117 5.43788C5.20117 5.46504 5.20117 5.47861 5.20117 5.47861L6.76953 12.6884C6.89844 13.2994 7.21354 13.8018 7.71484 14.1955C8.21615 14.5893 8.78906 14.7861 9.43359 14.7861C9.43359 14.7861 9.43717 14.7861 9.44434 14.7861C9.4515 14.7861 9.47656 14.7861 9.51953 14.7861H18.4141C19.1016 14.7861 19.696 14.5893 20.1973 14.1955C20.6986 13.8018 21.0208 13.2994 21.1641 12.6884L22.625 5.39715C22.625 5.26137 22.6178 5.13238 22.6035 5.01018C22.5892 4.88798 22.5319 4.78615 22.4316 4.70468ZM19.3164 12.3422C19.2734 12.5594 19.1696 12.7291 19.0049 12.8513C18.8402 12.9735 18.6432 13.0346 18.4141 13.0346H9.51953C9.29036 13.0346 9.08984 12.9735 8.91797 12.8513C8.74609 12.7291 8.63867 12.5594 8.5957 12.3422L7.2207 6.08961H20.6055L19.3164 12.3422Z" fill="black"/>
</g>
<defs>
<clipPath id="clip0_4_585">
<rect width="22" height="20" fill="white" transform="translate(0.625)"/>
</clipPath>
</defs>
</svg>
