<svg width="16" height="16" viewBox="0 0 16 16" fill="none" xmlns="http://www.w3.org/2000/svg">
<g id="user 1" clip-path="url(#clip0_4_587)">
<path id="Vector" d="M8.125 0C7.55208 0 7.01172 0.111795 6.50391 0.335388C5.99609 0.558982 5.55339 0.861486 5.17578 1.24291C4.79817 1.62433 4.4987 2.07151 4.27734 2.58446C4.06901 3.08426 3.96484 3.63008 3.96484 4.22195C3.96484 4.80066 4.06901 5.34648 4.27734 5.85943C4.4987 6.37238 4.79817 6.81627 5.17578 7.19112C5.55339 7.56597 5.99609 7.86519 6.50391 8.08878C7.01172 8.31237 7.55208 8.42417 8.125 8.42417C8.69792 8.42417 9.23828 8.31237 9.74609 8.08878C10.2539 7.86519 10.6966 7.56597 11.0742 7.19112C11.4518 6.81627 11.7513 6.37238 11.9727 5.85943C12.181 5.34648 12.2852 4.80066 12.2852 4.22195C12.2852 3.63008 12.181 3.08426 11.9727 2.58446C11.7513 2.07151 11.4518 1.62433 11.0742 1.24291C10.6966 0.861486 10.2539 0.558982 9.74609 0.335388C9.23828 0.111795 8.69792 0 8.125 0ZM8.125 6.74723C7.43489 6.74723 6.84571 6.50062 6.35742 6.0074C5.86914 5.51418 5.625 4.91903 5.625 4.22195C5.625 3.52486 5.86914 2.92972 6.35742 2.4365C6.84571 1.94328 7.43489 1.69667 8.125 1.69667C8.81511 1.69667 9.40429 1.94328 9.89258 2.4365C10.3809 2.92972 10.625 3.52486 10.625 4.22195C10.625 4.91903 10.3809 5.51418 9.89258 6.0074C9.40429 6.50062 8.81511 6.74723 8.125 6.74723ZM15.625 16V15.1517C15.625 14.3362 15.4753 13.5734 15.1758 12.8631C14.8633 12.1529 14.4434 11.5314 13.916 10.9988C13.3887 10.4661 12.7734 10.0419 12.0703 9.72626C11.3542 9.42375 10.5925 9.2725 9.78516 9.2725H6.46484C5.65755 9.2725 4.89584 9.42375 4.17969 9.72626C3.47656 10.0419 2.86133 10.4661 2.33398 10.9988C1.80664 11.5314 1.38672 12.1529 1.07422 12.8631C0.774738 13.5734 0.625 14.3362 0.625 15.1517V16H2.28516V15.1517C2.28516 14.573 2.39583 14.0271 2.61719 13.5142C2.83854 13.0012 3.13802 12.5573 3.51562 12.1825C3.89323 11.8076 4.33594 11.5084 4.84375 11.2848C5.33854 11.0612 5.8789 10.9494 6.46484 10.9494H9.78516C10.3711 10.9494 10.9115 11.0612 11.4062 11.2848C11.9141 11.5084 12.3568 11.8076 12.7344 12.1825C13.112 12.5573 13.4115 13.0012 13.6328 13.5142C13.8542 14.0271 13.9648 14.573 13.9648 15.1517V16H15.625Z" fill="black"/>
</g>
<defs>
<clipPath id="clip0_4_587">
<rect width="15" height="16" fill="white" transform="translate(0.625)"/>
</clipPath>
</defs>
</svg>
